<mxfile host="app.diagrams.net" agent="Mozilla/5.0 (Windows NT 10.0; Win64; x64) AppleWebKit/537.36 (KHTML, like Gecko) Chrome/127.0.0.0 Safari/537.36" version="24.7.7" pages="3">
  <diagram name="Page-1" id="sBPMaChs2N6SciqtYp2f">
    <mxGraphModel dx="1050" dy="522" grid="1" gridSize="10" guides="1" tooltips="1" connect="1" arrows="1" fold="1" page="1" pageScale="1" pageWidth="827" pageHeight="1169" math="0" shadow="1">
      <root>
        <mxCell id="0" />
        <mxCell id="1" parent="0" />
        <mxCell id="I1ANFPfAdTVEiCj3Aszp-1" value="&lt;font face=&quot;Comic Sans MS&quot;&gt;&lt;span style=&quot;font-size: 16px;&quot;&gt;2&lt;/span&gt;&lt;/font&gt;" style="rounded=0;whiteSpace=wrap;html=1;strokeWidth=2;fillWeight=4;hachureGap=8;hachureAngle=45;fillColor=none;sketch=1;strokeColor=#6c8ebf;fontStyle=1" vertex="1" parent="1">
          <mxGeometry x="250" y="90" width="50" height="50" as="geometry" />
        </mxCell>
        <mxCell id="I1ANFPfAdTVEiCj3Aszp-3" value="&lt;font face=&quot;Comic Sans MS&quot; style=&quot;font-size: 16px;&quot;&gt;7&lt;/font&gt;" style="rounded=0;whiteSpace=wrap;html=1;strokeWidth=2;fillWeight=4;hachureGap=8;hachureAngle=45;fillColor=none;sketch=1;strokeColor=#6c8ebf;fontStyle=1" vertex="1" parent="1">
          <mxGeometry x="300" y="90" width="50" height="50" as="geometry" />
        </mxCell>
        <mxCell id="I1ANFPfAdTVEiCj3Aszp-4" value="&lt;font face=&quot;Comic Sans MS&quot; style=&quot;font-size: 16px;&quot;&gt;11&lt;/font&gt;" style="rounded=0;whiteSpace=wrap;html=1;strokeWidth=2;fillWeight=4;hachureGap=8;hachureAngle=45;fillColor=none;sketch=1;strokeColor=#6c8ebf;fontStyle=1" vertex="1" parent="1">
          <mxGeometry x="350" y="90" width="50" height="50" as="geometry" />
        </mxCell>
        <mxCell id="I1ANFPfAdTVEiCj3Aszp-5" value="&lt;font face=&quot;Comic Sans MS&quot; style=&quot;font-size: 16px;&quot;&gt;15&lt;/font&gt;" style="rounded=0;whiteSpace=wrap;html=1;strokeWidth=2;fillWeight=4;hachureGap=8;hachureAngle=45;fillColor=none;sketch=1;strokeColor=#6c8ebf;fontStyle=1" vertex="1" parent="1">
          <mxGeometry x="400" y="90" width="50" height="50" as="geometry" />
        </mxCell>
        <mxCell id="I1ANFPfAdTVEiCj3Aszp-6" value="&lt;font style=&quot;font-size: 16px;&quot;&gt;&lt;b&gt;target = 9&lt;/b&gt;&lt;/font&gt;" style="text;html=1;align=center;verticalAlign=middle;whiteSpace=wrap;rounded=0;fontSize=16;textShadow=1;aspect=fixed;fontFamily=HarmonyOS Sans;" vertex="1" parent="1">
          <mxGeometry x="480" y="90" width="125" height="50" as="geometry" />
        </mxCell>
        <mxCell id="I1ANFPfAdTVEiCj3Aszp-8" value="&lt;font style=&quot;font-size: 16px;&quot;&gt;&lt;b&gt;nums&lt;/b&gt;&lt;/font&gt;" style="text;html=1;align=center;verticalAlign=middle;whiteSpace=wrap;rounded=0;fontSize=16;textShadow=1;aspect=fixed;fontFamily=HarmonyOS Sans;" vertex="1" parent="1">
          <mxGeometry x="140" y="90" width="125" height="50" as="geometry" />
        </mxCell>
        <mxCell id="I1ANFPfAdTVEiCj3Aszp-9" value="" style="rounded=0;whiteSpace=wrap;html=1;strokeWidth=2;fillWeight=4;hachureGap=8;hachureAngle=45;fillColor=none;sketch=1;strokeColor=#6c8ebf;fontStyle=1" vertex="1" parent="1">
          <mxGeometry x="300" y="250" width="50" height="50" as="geometry" />
        </mxCell>
        <mxCell id="I1ANFPfAdTVEiCj3Aszp-10" value="" style="rounded=0;whiteSpace=wrap;html=1;strokeWidth=2;fillWeight=4;hachureGap=8;hachureAngle=45;fillColor=none;sketch=1;strokeColor=#6c8ebf;fontStyle=1" vertex="1" parent="1">
          <mxGeometry x="350" y="250" width="50" height="50" as="geometry" />
        </mxCell>
        <mxCell id="I1ANFPfAdTVEiCj3Aszp-11" value="" style="rounded=0;whiteSpace=wrap;html=1;strokeWidth=2;fillWeight=4;hachureGap=8;hachureAngle=45;fillColor=none;sketch=1;strokeColor=#6c8ebf;fontStyle=1" vertex="1" parent="1">
          <mxGeometry x="400" y="250" width="50" height="50" as="geometry" />
        </mxCell>
        <mxCell id="I1ANFPfAdTVEiCj3Aszp-12" value="" style="rounded=0;whiteSpace=wrap;html=1;strokeWidth=2;fillWeight=4;hachureGap=8;hachureAngle=45;fillColor=none;sketch=1;strokeColor=#6c8ebf;fontStyle=1" vertex="1" parent="1">
          <mxGeometry x="450" y="250" width="50" height="50" as="geometry" />
        </mxCell>
        <mxCell id="I1ANFPfAdTVEiCj3Aszp-14" value="&lt;font face=&quot;Comic Sans MS&quot;&gt;&lt;span style=&quot;font-size: 16px;&quot;&gt;key&lt;/span&gt;&lt;/font&gt;" style="rounded=0;whiteSpace=wrap;html=1;strokeWidth=2;fillWeight=4;hachureGap=8;hachureAngle=45;fillColor=#dae8fc;sketch=1;strokeColor=#6c8ebf;gradientColor=none;" vertex="1" parent="1">
          <mxGeometry x="250" y="250" width="50" height="50" as="geometry" />
        </mxCell>
        <mxCell id="I1ANFPfAdTVEiCj3Aszp-15" value="&lt;font face=&quot;Comic Sans MS&quot;&gt;&lt;span style=&quot;font-size: 16px;&quot;&gt;value&lt;/span&gt;&lt;/font&gt;" style="rounded=0;whiteSpace=wrap;html=1;strokeWidth=2;fillWeight=4;hachureGap=8;hachureAngle=45;fillColor=#dae8fc;sketch=1;strokeColor=#6c8ebf;gradientColor=none;" vertex="1" parent="1">
          <mxGeometry x="250" y="300" width="50" height="50" as="geometry" />
        </mxCell>
        <mxCell id="I1ANFPfAdTVEiCj3Aszp-16" value="" style="rounded=0;whiteSpace=wrap;html=1;strokeWidth=2;fillWeight=4;hachureGap=8;hachureAngle=45;fillColor=none;sketch=1;strokeColor=#6c8ebf;fontStyle=1" vertex="1" parent="1">
          <mxGeometry x="300" y="300" width="50" height="50" as="geometry" />
        </mxCell>
        <mxCell id="I1ANFPfAdTVEiCj3Aszp-17" value="" style="rounded=0;whiteSpace=wrap;html=1;strokeWidth=2;fillWeight=4;hachureGap=8;hachureAngle=45;fillColor=none;sketch=1;strokeColor=#6c8ebf;fontStyle=1" vertex="1" parent="1">
          <mxGeometry x="350" y="300" width="50" height="50" as="geometry" />
        </mxCell>
        <mxCell id="I1ANFPfAdTVEiCj3Aszp-18" value="" style="rounded=0;whiteSpace=wrap;html=1;strokeWidth=2;fillWeight=4;hachureGap=8;hachureAngle=45;fillColor=none;sketch=1;strokeColor=#6c8ebf;fontStyle=1" vertex="1" parent="1">
          <mxGeometry x="400" y="300" width="50" height="50" as="geometry" />
        </mxCell>
        <mxCell id="I1ANFPfAdTVEiCj3Aszp-19" value="" style="rounded=0;whiteSpace=wrap;html=1;strokeWidth=2;fillWeight=4;hachureGap=8;hachureAngle=45;fillColor=none;sketch=1;strokeColor=#6c8ebf;fontStyle=1" vertex="1" parent="1">
          <mxGeometry x="450" y="300" width="50" height="50" as="geometry" />
        </mxCell>
        <mxCell id="I1ANFPfAdTVEiCj3Aszp-20" value="&lt;b&gt;HashMap&lt;/b&gt;" style="text;html=1;align=center;verticalAlign=middle;whiteSpace=wrap;rounded=0;fontSize=16;textShadow=1;aspect=fixed;fontFamily=HarmonyOS Sans;shadow=0;glass=0;" vertex="1" parent="1">
          <mxGeometry x="140" y="270" width="125" height="50" as="geometry" />
        </mxCell>
        <mxCell id="poR_nVImTpmBDfegC9Pn-1" value="&lt;span style=&quot;font-size: 20px;&quot;&gt;&lt;b&gt;初始化&lt;/b&gt;&lt;/span&gt;" style="text;html=1;align=center;verticalAlign=middle;whiteSpace=wrap;rounded=0;fontSize=16;textShadow=1;aspect=fixed;fontFamily=HarmonyOS Sans;" vertex="1" parent="1">
          <mxGeometry x="287.5" y="390" width="175" height="70" as="geometry" />
        </mxCell>
      </root>
    </mxGraphModel>
  </diagram>
  <diagram id="yCEgssOX7512VElz5iAI" name="Page-2">
    <mxGraphModel dx="1235" dy="614" grid="1" gridSize="10" guides="1" tooltips="1" connect="1" arrows="1" fold="1" page="1" pageScale="1" pageWidth="827" pageHeight="1169" math="0" shadow="1">
      <root>
        <mxCell id="0" />
        <mxCell id="1" parent="0" />
        <mxCell id="QBjYoQ9Y5qM2Kvl1SpT5-1" value="&lt;font face=&quot;Comic Sans MS&quot;&gt;&lt;span style=&quot;font-size: 16px;&quot;&gt;2&lt;/span&gt;&lt;/font&gt;" style="rounded=0;whiteSpace=wrap;html=1;strokeWidth=2;fillWeight=4;hachureGap=8;hachureAngle=45;fillColor=#FF8000;strokeColor=#6c8ebf;fontStyle=1;fillStyle=solid;" vertex="1" parent="1">
          <mxGeometry x="250" y="90" width="50" height="50" as="geometry" />
        </mxCell>
        <mxCell id="QBjYoQ9Y5qM2Kvl1SpT5-2" value="&lt;font face=&quot;Comic Sans MS&quot; style=&quot;font-size: 16px;&quot;&gt;7&lt;/font&gt;" style="rounded=0;whiteSpace=wrap;html=1;strokeWidth=2;fillWeight=4;hachureGap=8;hachureAngle=45;fillColor=none;sketch=1;strokeColor=#6c8ebf;fontStyle=1" vertex="1" parent="1">
          <mxGeometry x="300" y="90" width="50" height="50" as="geometry" />
        </mxCell>
        <mxCell id="QBjYoQ9Y5qM2Kvl1SpT5-3" value="&lt;font face=&quot;Comic Sans MS&quot; style=&quot;font-size: 16px;&quot;&gt;11&lt;/font&gt;" style="rounded=0;whiteSpace=wrap;html=1;strokeWidth=2;fillWeight=4;hachureGap=8;hachureAngle=45;fillColor=none;sketch=1;strokeColor=#6c8ebf;fontStyle=1" vertex="1" parent="1">
          <mxGeometry x="350" y="90" width="50" height="50" as="geometry" />
        </mxCell>
        <mxCell id="QBjYoQ9Y5qM2Kvl1SpT5-4" value="&lt;font face=&quot;Comic Sans MS&quot; style=&quot;font-size: 16px;&quot;&gt;15&lt;/font&gt;" style="rounded=0;whiteSpace=wrap;html=1;strokeWidth=2;fillWeight=4;hachureGap=8;hachureAngle=45;fillColor=none;sketch=1;strokeColor=#6c8ebf;fontStyle=1" vertex="1" parent="1">
          <mxGeometry x="400" y="90" width="50" height="50" as="geometry" />
        </mxCell>
        <mxCell id="QBjYoQ9Y5qM2Kvl1SpT5-5" value="&lt;font style=&quot;font-size: 16px;&quot;&gt;&lt;b&gt;target = 9&lt;/b&gt;&lt;/font&gt;" style="text;html=1;align=center;verticalAlign=middle;whiteSpace=wrap;rounded=0;fontSize=16;textShadow=1;aspect=fixed;fontFamily=HarmonyOS Sans;" vertex="1" parent="1">
          <mxGeometry x="480" y="90" width="125" height="50" as="geometry" />
        </mxCell>
        <mxCell id="QBjYoQ9Y5qM2Kvl1SpT5-6" value="&lt;font style=&quot;font-size: 16px;&quot;&gt;&lt;b&gt;nums&lt;/b&gt;&lt;/font&gt;" style="text;html=1;align=center;verticalAlign=middle;whiteSpace=wrap;rounded=0;fontSize=16;textShadow=1;aspect=fixed;fontFamily=HarmonyOS Sans;" vertex="1" parent="1">
          <mxGeometry x="140" y="90" width="125" height="50" as="geometry" />
        </mxCell>
        <mxCell id="QBjYoQ9Y5qM2Kvl1SpT5-7" value="&lt;font style=&quot;font-size: 16px;&quot;&gt;2&lt;/font&gt;" style="rounded=0;whiteSpace=wrap;html=1;strokeWidth=2;fillWeight=4;hachureGap=8;hachureAngle=45;fillColor=none;sketch=1;strokeColor=#6c8ebf;fontStyle=1;fontFamily=Comic Sans MS;fontSize=16;" vertex="1" parent="1">
          <mxGeometry x="300" y="250" width="50" height="50" as="geometry" />
        </mxCell>
        <mxCell id="QBjYoQ9Y5qM2Kvl1SpT5-11" value="&lt;font face=&quot;Comic Sans MS&quot;&gt;&lt;span style=&quot;font-size: 16px;&quot;&gt;key&lt;/span&gt;&lt;/font&gt;" style="rounded=0;whiteSpace=wrap;html=1;strokeWidth=2;fillWeight=4;hachureGap=8;hachureAngle=45;fillColor=#dae8fc;sketch=1;strokeColor=#6c8ebf;gradientColor=none;" vertex="1" parent="1">
          <mxGeometry x="250" y="250" width="50" height="50" as="geometry" />
        </mxCell>
        <mxCell id="QBjYoQ9Y5qM2Kvl1SpT5-12" value="&lt;font face=&quot;Comic Sans MS&quot;&gt;&lt;span style=&quot;font-size: 16px;&quot;&gt;value&lt;/span&gt;&lt;/font&gt;" style="rounded=0;whiteSpace=wrap;html=1;strokeWidth=2;fillWeight=4;hachureGap=8;hachureAngle=45;fillColor=#dae8fc;sketch=1;strokeColor=#6c8ebf;gradientColor=none;" vertex="1" parent="1">
          <mxGeometry x="250" y="300" width="50" height="50" as="geometry" />
        </mxCell>
        <mxCell id="QBjYoQ9Y5qM2Kvl1SpT5-13" value="&lt;font style=&quot;font-size: 16px;&quot;&gt;0&lt;/font&gt;" style="rounded=0;whiteSpace=wrap;html=1;strokeWidth=2;fillWeight=4;hachureGap=8;hachureAngle=45;fillColor=none;sketch=1;strokeColor=#6c8ebf;fontStyle=1;fontFamily=Comic Sans MS;fontSize=16;" vertex="1" parent="1">
          <mxGeometry x="300" y="300" width="50" height="50" as="geometry" />
        </mxCell>
        <mxCell id="QBjYoQ9Y5qM2Kvl1SpT5-17" value="&lt;b&gt;HashMap&lt;/b&gt;" style="text;html=1;align=center;verticalAlign=middle;whiteSpace=wrap;rounded=0;fontSize=16;textShadow=1;aspect=fixed;fontFamily=HarmonyOS Sans;shadow=0;glass=0;" vertex="1" parent="1">
          <mxGeometry x="140" y="270" width="125" height="50" as="geometry" />
        </mxCell>
        <mxCell id="OLRO21LAD5TlbOmShF8M-1" value="&lt;span style=&quot;font-size: 20px;&quot;&gt;&lt;b&gt;target-nums[0] = 7，不在HashMap中，存入HashMap&lt;/b&gt;&lt;/span&gt;" style="text;html=1;align=center;verticalAlign=middle;whiteSpace=wrap;rounded=0;fontSize=16;textShadow=1;aspect=fixed;fontFamily=HarmonyOS Sans;" vertex="1" parent="1">
          <mxGeometry x="230" y="380" width="272.5" height="109" as="geometry" />
        </mxCell>
        <mxCell id="OLRO21LAD5TlbOmShF8M-2" value="" style="rounded=0;whiteSpace=wrap;html=1;strokeWidth=2;fillWeight=4;hachureGap=8;hachureAngle=45;fillColor=none;sketch=1;strokeColor=#6c8ebf;fontStyle=1;fontFamily=Comic Sans MS;fontSize=16;" vertex="1" parent="1">
          <mxGeometry x="350" y="250" width="50" height="50" as="geometry" />
        </mxCell>
        <mxCell id="OLRO21LAD5TlbOmShF8M-3" value="" style="rounded=0;whiteSpace=wrap;html=1;strokeWidth=2;fillWeight=4;hachureGap=8;hachureAngle=45;fillColor=none;sketch=1;strokeColor=#6c8ebf;fontStyle=1;fontFamily=Comic Sans MS;fontSize=16;" vertex="1" parent="1">
          <mxGeometry x="350" y="300" width="50" height="50" as="geometry" />
        </mxCell>
        <mxCell id="OLRO21LAD5TlbOmShF8M-4" value="" style="rounded=0;whiteSpace=wrap;html=1;strokeWidth=2;fillWeight=4;hachureGap=8;hachureAngle=45;fillColor=none;sketch=1;strokeColor=#6c8ebf;fontStyle=1;fontFamily=Comic Sans MS;fontSize=16;" vertex="1" parent="1">
          <mxGeometry x="400" y="250" width="50" height="50" as="geometry" />
        </mxCell>
        <mxCell id="OLRO21LAD5TlbOmShF8M-5" value="" style="rounded=0;whiteSpace=wrap;html=1;strokeWidth=2;fillWeight=4;hachureGap=8;hachureAngle=45;fillColor=none;sketch=1;strokeColor=#6c8ebf;fontStyle=1;fontFamily=Comic Sans MS;fontSize=16;" vertex="1" parent="1">
          <mxGeometry x="400" y="300" width="50" height="50" as="geometry" />
        </mxCell>
        <mxCell id="OLRO21LAD5TlbOmShF8M-6" value="" style="rounded=0;whiteSpace=wrap;html=1;strokeWidth=2;fillWeight=4;hachureGap=8;hachureAngle=45;fillColor=none;sketch=1;strokeColor=#6c8ebf;fontStyle=1;fontFamily=Comic Sans MS;fontSize=16;" vertex="1" parent="1">
          <mxGeometry x="450" y="250" width="50" height="50" as="geometry" />
        </mxCell>
        <mxCell id="OLRO21LAD5TlbOmShF8M-7" value="" style="rounded=0;whiteSpace=wrap;html=1;strokeWidth=2;fillWeight=4;hachureGap=8;hachureAngle=45;fillColor=none;sketch=1;strokeColor=#6c8ebf;fontStyle=1;fontFamily=Comic Sans MS;fontSize=16;" vertex="1" parent="1">
          <mxGeometry x="450" y="300" width="50" height="50" as="geometry" />
        </mxCell>
        <mxCell id="OLRO21LAD5TlbOmShF8M-9" value="&lt;font style=&quot;font-size: 16px;&quot;&gt;&lt;b&gt;key：下标值&lt;/b&gt;&lt;/font&gt;&lt;div&gt;&lt;font style=&quot;font-size: 16px;&quot;&gt;&lt;b&gt;value：下标&lt;/b&gt;&lt;/font&gt;&lt;/div&gt;" style="text;html=1;align=center;verticalAlign=middle;whiteSpace=wrap;rounded=0;fontSize=16;textShadow=1;aspect=fixed;fontFamily=HarmonyOS Sans;" vertex="1" parent="1">
          <mxGeometry x="550" y="270" width="125" height="50" as="geometry" />
        </mxCell>
        <mxCell id="OLRO21LAD5TlbOmShF8M-11" value="&lt;font style=&quot;font-size: 16px;&quot;&gt;&lt;b&gt;0&lt;/b&gt;&lt;/font&gt;" style="text;html=1;align=center;verticalAlign=middle;whiteSpace=wrap;rounded=0;fontSize=16;textShadow=1;aspect=fixed;fontFamily=HarmonyOS Sans;" vertex="1" parent="1">
          <mxGeometry x="212.5" y="40" width="125" height="50" as="geometry" />
        </mxCell>
        <mxCell id="OLRO21LAD5TlbOmShF8M-12" value="&lt;font style=&quot;font-size: 16px;&quot;&gt;&lt;b&gt;1&lt;/b&gt;&lt;/font&gt;" style="text;html=1;align=center;verticalAlign=middle;whiteSpace=wrap;rounded=0;fontSize=16;textShadow=1;aspect=fixed;fontFamily=HarmonyOS Sans;" vertex="1" parent="1">
          <mxGeometry x="262.5" y="40" width="125" height="50" as="geometry" />
        </mxCell>
        <mxCell id="OLRO21LAD5TlbOmShF8M-13" value="&lt;font style=&quot;font-size: 16px;&quot;&gt;&lt;b&gt;2&lt;/b&gt;&lt;/font&gt;" style="text;html=1;align=center;verticalAlign=middle;whiteSpace=wrap;rounded=0;fontSize=16;textShadow=1;aspect=fixed;fontFamily=HarmonyOS Sans;" vertex="1" parent="1">
          <mxGeometry x="312.5" y="40" width="125" height="50" as="geometry" />
        </mxCell>
        <mxCell id="OLRO21LAD5TlbOmShF8M-14" value="&lt;font style=&quot;font-size: 16px;&quot;&gt;&lt;b&gt;3&lt;/b&gt;&lt;/font&gt;" style="text;html=1;align=center;verticalAlign=middle;whiteSpace=wrap;rounded=0;fontSize=16;textShadow=1;aspect=fixed;fontFamily=HarmonyOS Sans;" vertex="1" parent="1">
          <mxGeometry x="362.5" y="40" width="125" height="50" as="geometry" />
        </mxCell>
        <mxCell id="OLRO21LAD5TlbOmShF8M-16" value="&lt;b&gt;index&lt;/b&gt;" style="text;html=1;align=center;verticalAlign=middle;whiteSpace=wrap;rounded=0;fontSize=16;textShadow=1;aspect=fixed;fontFamily=HarmonyOS Sans;" vertex="1" parent="1">
          <mxGeometry x="140" y="40" width="125" height="50" as="geometry" />
        </mxCell>
        <mxCell id="vPQBK1yJXhpnMFEshl7h-2" value="" style="endArrow=classic;html=1;rounded=0;exitX=0.5;exitY=1;exitDx=0;exitDy=0;entryX=0.5;entryY=0;entryDx=0;entryDy=0;fontSize=13;strokeWidth=2;fillColor=#ffe6cc;strokeColor=#d79b00;" edge="1" parent="1" source="QBjYoQ9Y5qM2Kvl1SpT5-1" target="QBjYoQ9Y5qM2Kvl1SpT5-7">
          <mxGeometry width="50" height="50" relative="1" as="geometry">
            <mxPoint x="390" y="200" as="sourcePoint" />
            <mxPoint x="440" y="150" as="targetPoint" />
            <Array as="points">
              <mxPoint x="325" y="200" />
            </Array>
          </mxGeometry>
        </mxCell>
      </root>
    </mxGraphModel>
  </diagram>
  <diagram id="vBtZamNB-BCrTSOd51vi" name="Page-3">
    <mxGraphModel dx="875" dy="435" grid="1" gridSize="10" guides="1" tooltips="1" connect="1" arrows="1" fold="1" page="1" pageScale="1" pageWidth="827" pageHeight="1169" math="0" shadow="1">
      <root>
        <mxCell id="0" />
        <mxCell id="1" parent="0" />
        <mxCell id="HvW0NNLQC4IqvZofX0A2-1" value="&lt;font face=&quot;Comic Sans MS&quot;&gt;&lt;span style=&quot;font-size: 16px;&quot;&gt;2&lt;/span&gt;&lt;/font&gt;" style="rounded=0;whiteSpace=wrap;html=1;strokeWidth=2;fillWeight=4;hachureGap=8;hachureAngle=45;fillColor=none;strokeColor=#6c8ebf;fontStyle=1;fillStyle=solid;" vertex="1" parent="1">
          <mxGeometry x="250" y="90" width="50" height="50" as="geometry" />
        </mxCell>
        <mxCell id="HvW0NNLQC4IqvZofX0A2-2" value="&lt;font face=&quot;Comic Sans MS&quot; style=&quot;font-size: 16px;&quot;&gt;7&lt;/font&gt;" style="rounded=0;whiteSpace=wrap;html=1;strokeWidth=2;fillWeight=4;hachureGap=8;hachureAngle=45;fillColor=#FF8000;sketch=1;strokeColor=#6c8ebf;fontStyle=1;fillStyle=solid;" vertex="1" parent="1">
          <mxGeometry x="300" y="90" width="50" height="50" as="geometry" />
        </mxCell>
        <mxCell id="HvW0NNLQC4IqvZofX0A2-3" value="&lt;font face=&quot;Comic Sans MS&quot; style=&quot;font-size: 16px;&quot;&gt;11&lt;/font&gt;" style="rounded=0;whiteSpace=wrap;html=1;strokeWidth=2;fillWeight=4;hachureGap=8;hachureAngle=45;fillColor=none;sketch=1;strokeColor=#6c8ebf;fontStyle=1" vertex="1" parent="1">
          <mxGeometry x="350" y="90" width="50" height="50" as="geometry" />
        </mxCell>
        <mxCell id="HvW0NNLQC4IqvZofX0A2-4" value="&lt;font face=&quot;Comic Sans MS&quot; style=&quot;font-size: 16px;&quot;&gt;15&lt;/font&gt;" style="rounded=0;whiteSpace=wrap;html=1;strokeWidth=2;fillWeight=4;hachureGap=8;hachureAngle=45;fillColor=none;sketch=1;strokeColor=#6c8ebf;fontStyle=1" vertex="1" parent="1">
          <mxGeometry x="400" y="90" width="50" height="50" as="geometry" />
        </mxCell>
        <mxCell id="HvW0NNLQC4IqvZofX0A2-5" value="&lt;font style=&quot;font-size: 16px;&quot;&gt;&lt;b&gt;target = 9&lt;/b&gt;&lt;/font&gt;" style="text;html=1;align=center;verticalAlign=middle;whiteSpace=wrap;rounded=0;fontSize=16;textShadow=1;aspect=fixed;fontFamily=HarmonyOS Sans;" vertex="1" parent="1">
          <mxGeometry x="480" y="90" width="125" height="50" as="geometry" />
        </mxCell>
        <mxCell id="HvW0NNLQC4IqvZofX0A2-6" value="&lt;font style=&quot;font-size: 16px;&quot;&gt;&lt;b&gt;nums&lt;/b&gt;&lt;/font&gt;" style="text;html=1;align=center;verticalAlign=middle;whiteSpace=wrap;rounded=0;fontSize=16;textShadow=1;aspect=fixed;fontFamily=HarmonyOS Sans;" vertex="1" parent="1">
          <mxGeometry x="140" y="90" width="125" height="50" as="geometry" />
        </mxCell>
        <mxCell id="HvW0NNLQC4IqvZofX0A2-7" value="&lt;font style=&quot;font-size: 16px;&quot;&gt;2&lt;/font&gt;" style="rounded=0;whiteSpace=wrap;html=1;strokeWidth=2;fillWeight=4;hachureGap=8;hachureAngle=45;fillColor=#FF3333;sketch=1;strokeColor=#6c8ebf;fontStyle=1;fontFamily=Comic Sans MS;fontSize=16;fillStyle=hachure;" vertex="1" parent="1">
          <mxGeometry x="300" y="250" width="50" height="50" as="geometry" />
        </mxCell>
        <mxCell id="HvW0NNLQC4IqvZofX0A2-8" value="&lt;font face=&quot;Comic Sans MS&quot;&gt;&lt;span style=&quot;font-size: 16px;&quot;&gt;key&lt;/span&gt;&lt;/font&gt;" style="rounded=0;whiteSpace=wrap;html=1;strokeWidth=2;fillWeight=4;hachureGap=8;hachureAngle=45;fillColor=#dae8fc;sketch=1;strokeColor=#6c8ebf;gradientColor=none;" vertex="1" parent="1">
          <mxGeometry x="250" y="250" width="50" height="50" as="geometry" />
        </mxCell>
        <mxCell id="HvW0NNLQC4IqvZofX0A2-9" value="&lt;font face=&quot;Comic Sans MS&quot;&gt;&lt;span style=&quot;font-size: 16px;&quot;&gt;value&lt;/span&gt;&lt;/font&gt;" style="rounded=0;whiteSpace=wrap;html=1;strokeWidth=2;fillWeight=4;hachureGap=8;hachureAngle=45;fillColor=#dae8fc;sketch=1;strokeColor=#6c8ebf;gradientColor=none;" vertex="1" parent="1">
          <mxGeometry x="250" y="300" width="50" height="50" as="geometry" />
        </mxCell>
        <mxCell id="HvW0NNLQC4IqvZofX0A2-10" value="&lt;font style=&quot;font-size: 16px;&quot;&gt;0&lt;/font&gt;" style="rounded=0;whiteSpace=wrap;html=1;strokeWidth=2;fillWeight=4;hachureGap=8;hachureAngle=45;fillColor=none;sketch=1;strokeColor=#6c8ebf;fontStyle=1;fontFamily=Comic Sans MS;fontSize=16;" vertex="1" parent="1">
          <mxGeometry x="300" y="300" width="50" height="50" as="geometry" />
        </mxCell>
        <mxCell id="HvW0NNLQC4IqvZofX0A2-11" value="&lt;b&gt;HashMap&lt;/b&gt;" style="text;html=1;align=center;verticalAlign=middle;whiteSpace=wrap;rounded=0;fontSize=16;textShadow=1;aspect=fixed;fontFamily=HarmonyOS Sans;shadow=0;glass=0;" vertex="1" parent="1">
          <mxGeometry x="140" y="270" width="125" height="50" as="geometry" />
        </mxCell>
        <mxCell id="HvW0NNLQC4IqvZofX0A2-12" value="&lt;span style=&quot;font-size: 20px;&quot;&gt;&lt;b&gt;target-nums[1] = 2，HashMap中存在，返回对应下标[0,1]&lt;/b&gt;&lt;/span&gt;" style="text;html=1;align=center;verticalAlign=middle;whiteSpace=wrap;rounded=0;fontSize=16;textShadow=1;aspect=fixed;fontFamily=HarmonyOS Sans;" vertex="1" parent="1">
          <mxGeometry x="230" y="380" width="272.5" height="109" as="geometry" />
        </mxCell>
        <mxCell id="HvW0NNLQC4IqvZofX0A2-13" value="" style="rounded=0;whiteSpace=wrap;html=1;strokeWidth=2;fillWeight=4;hachureGap=8;hachureAngle=45;fillColor=none;sketch=1;strokeColor=#6c8ebf;fontStyle=1;fontFamily=Comic Sans MS;fontSize=16;" vertex="1" parent="1">
          <mxGeometry x="350" y="250" width="50" height="50" as="geometry" />
        </mxCell>
        <mxCell id="HvW0NNLQC4IqvZofX0A2-14" value="" style="rounded=0;whiteSpace=wrap;html=1;strokeWidth=2;fillWeight=4;hachureGap=8;hachureAngle=45;fillColor=none;sketch=1;strokeColor=#6c8ebf;fontStyle=1;fontFamily=Comic Sans MS;fontSize=16;" vertex="1" parent="1">
          <mxGeometry x="350" y="300" width="50" height="50" as="geometry" />
        </mxCell>
        <mxCell id="HvW0NNLQC4IqvZofX0A2-15" value="" style="rounded=0;whiteSpace=wrap;html=1;strokeWidth=2;fillWeight=4;hachureGap=8;hachureAngle=45;fillColor=none;sketch=1;strokeColor=#6c8ebf;fontStyle=1;fontFamily=Comic Sans MS;fontSize=16;" vertex="1" parent="1">
          <mxGeometry x="400" y="250" width="50" height="50" as="geometry" />
        </mxCell>
        <mxCell id="HvW0NNLQC4IqvZofX0A2-16" value="" style="rounded=0;whiteSpace=wrap;html=1;strokeWidth=2;fillWeight=4;hachureGap=8;hachureAngle=45;fillColor=none;sketch=1;strokeColor=#6c8ebf;fontStyle=1;fontFamily=Comic Sans MS;fontSize=16;" vertex="1" parent="1">
          <mxGeometry x="400" y="300" width="50" height="50" as="geometry" />
        </mxCell>
        <mxCell id="HvW0NNLQC4IqvZofX0A2-17" value="" style="rounded=0;whiteSpace=wrap;html=1;strokeWidth=2;fillWeight=4;hachureGap=8;hachureAngle=45;fillColor=none;sketch=1;strokeColor=#6c8ebf;fontStyle=1;fontFamily=Comic Sans MS;fontSize=16;" vertex="1" parent="1">
          <mxGeometry x="450" y="250" width="50" height="50" as="geometry" />
        </mxCell>
        <mxCell id="HvW0NNLQC4IqvZofX0A2-18" value="" style="rounded=0;whiteSpace=wrap;html=1;strokeWidth=2;fillWeight=4;hachureGap=8;hachureAngle=45;fillColor=none;sketch=1;strokeColor=#6c8ebf;fontStyle=1;fontFamily=Comic Sans MS;fontSize=16;" vertex="1" parent="1">
          <mxGeometry x="450" y="300" width="50" height="50" as="geometry" />
        </mxCell>
        <mxCell id="HvW0NNLQC4IqvZofX0A2-19" value="&lt;font style=&quot;font-size: 16px;&quot;&gt;&lt;b&gt;key：下标值&lt;/b&gt;&lt;/font&gt;&lt;div&gt;&lt;font style=&quot;font-size: 16px;&quot;&gt;&lt;b&gt;value：下标&lt;/b&gt;&lt;/font&gt;&lt;/div&gt;" style="text;html=1;align=center;verticalAlign=middle;whiteSpace=wrap;rounded=0;fontSize=16;textShadow=1;aspect=fixed;fontFamily=HarmonyOS Sans;" vertex="1" parent="1">
          <mxGeometry x="550" y="270" width="125" height="50" as="geometry" />
        </mxCell>
        <mxCell id="HvW0NNLQC4IqvZofX0A2-20" value="&lt;font style=&quot;font-size: 16px;&quot;&gt;&lt;b&gt;0&lt;/b&gt;&lt;/font&gt;" style="text;html=1;align=center;verticalAlign=middle;whiteSpace=wrap;rounded=0;fontSize=16;textShadow=1;aspect=fixed;fontFamily=HarmonyOS Sans;" vertex="1" parent="1">
          <mxGeometry x="212.5" y="40" width="125" height="50" as="geometry" />
        </mxCell>
        <mxCell id="HvW0NNLQC4IqvZofX0A2-21" value="&lt;font style=&quot;font-size: 16px;&quot;&gt;&lt;b&gt;1&lt;/b&gt;&lt;/font&gt;" style="text;html=1;align=center;verticalAlign=middle;whiteSpace=wrap;rounded=0;fontSize=16;textShadow=1;aspect=fixed;fontFamily=HarmonyOS Sans;" vertex="1" parent="1">
          <mxGeometry x="262.5" y="40" width="125" height="50" as="geometry" />
        </mxCell>
        <mxCell id="HvW0NNLQC4IqvZofX0A2-22" value="&lt;font style=&quot;font-size: 16px;&quot;&gt;&lt;b&gt;2&lt;/b&gt;&lt;/font&gt;" style="text;html=1;align=center;verticalAlign=middle;whiteSpace=wrap;rounded=0;fontSize=16;textShadow=1;aspect=fixed;fontFamily=HarmonyOS Sans;" vertex="1" parent="1">
          <mxGeometry x="312.5" y="40" width="125" height="50" as="geometry" />
        </mxCell>
        <mxCell id="HvW0NNLQC4IqvZofX0A2-23" value="&lt;font style=&quot;font-size: 16px;&quot;&gt;&lt;b&gt;3&lt;/b&gt;&lt;/font&gt;" style="text;html=1;align=center;verticalAlign=middle;whiteSpace=wrap;rounded=0;fontSize=16;textShadow=1;aspect=fixed;fontFamily=HarmonyOS Sans;" vertex="1" parent="1">
          <mxGeometry x="362.5" y="40" width="125" height="50" as="geometry" />
        </mxCell>
        <mxCell id="HvW0NNLQC4IqvZofX0A2-24" value="&lt;b&gt;index&lt;/b&gt;" style="text;html=1;align=center;verticalAlign=middle;whiteSpace=wrap;rounded=0;fontSize=16;textShadow=1;aspect=fixed;fontFamily=HarmonyOS Sans;" vertex="1" parent="1">
          <mxGeometry x="140" y="40" width="125" height="50" as="geometry" />
        </mxCell>
        <mxCell id="Hz1nkqOZ18ISuf0wg_eB-1" value="&lt;b&gt;&amp;nbsp;⭐&lt;/b&gt;" style="text;html=1;align=center;verticalAlign=middle;whiteSpace=wrap;rounded=0;fontSize=16;textShadow=1;aspect=fixed;fontFamily=HarmonyOS Sans;" vertex="1" parent="1">
          <mxGeometry x="298" y="280" width="50" height="20" as="geometry" />
        </mxCell>
        <mxCell id="4AdcsT9Zj_MnEsQWA0vK-1" value="&lt;b&gt;&amp;nbsp;⭐&lt;/b&gt;" style="text;html=1;align=center;verticalAlign=middle;whiteSpace=wrap;rounded=0;fontSize=16;textShadow=1;aspect=fixed;fontFamily=HarmonyOS Sans;" vertex="1" parent="1">
          <mxGeometry x="311" y="75" width="25" height="10" as="geometry" />
        </mxCell>
      </root>
    </mxGraphModel>
  </diagram>
</mxfile>
